<svg width="900" height="1100" viewBox="0 0 900 1100" fill="none" xmlns="http://www.w3.org/2000/svg">
  <defs>
    <linearGradient id="bg" x1="60" y1="40" x2="840" y2="1060" gradientUnits="userSpaceOnUse"><stop stop-color="#EEE9FF"/><stop offset="1" stop-color="#FFFFFF"/></linearGradient>
    <linearGradient id="glass" x1="220" y1="220" x2="680" y2="860" gradientUnits="userSpaceOnUse"><stop stop-color="#FFFFFF" stop-opacity="0.96"/><stop offset="1" stop-color="#DFD7FF" stop-opacity="0.72"/></linearGradient>
    <linearGradient id="screen" x1="320" y1="380" x2="580" y2="570" gradientUnits="userSpaceOnUse"><stop stop-color="#3F3792"/><stop offset="1" stop-color="#5E57D7"/></linearGradient>
    <filter id="shadow" x="0" y="0" width="900" height="1100" filterUnits="userSpaceOnUse"><feDropShadow dx="0" dy="22" stdDeviation="22" flood-color="#0F172A" flood-opacity="0.18"/></filter>
  </defs>
  <rect width="900" height="1100" rx="48" fill="url(#bg)"/>
  <circle cx="220" cy="220" r="130" fill="#C9BEFF" opacity="0.66"/>
  <circle cx="700" cy="860" r="170" fill="#CFE0FF" opacity="0.68"/>
  <g filter="url(#shadow)">
    <rect x="150" y="180" width="600" height="740" rx="42" fill="url(#glass)" stroke="white"/>
    <rect x="300" y="330" width="300" height="240" rx="28" fill="#F7F5FF"/>
    <rect x="332" y="370" width="236" height="150" rx="22" fill="url(#screen)"/>
    <text x="388" y="438" font-size="38" fill="white" font-family="Arial" font-weight="700">E = mc²</text>
    <rect x="372" y="520" width="156" height="16" rx="8" fill="#D0CEFF"/>
    <rect x="382" y="544" width="136" height="16" rx="8" fill="#C6C2FF"/>
    <path d="M310 605h280" stroke="#A89BFF" stroke-width="10" stroke-linecap="round" opacity="0.5"/>
    <path d="M326 286C380 256 428 242 450 242C487 242 548 258 608 300" stroke="#FFFFFF" stroke-width="18" stroke-linecap="round" opacity="0.5"/>
    <ellipse cx="450" cy="642" rx="220" ry="30" fill="#B8C7D9" opacity="0.24"/>
  </g>
</svg>