<svg width="900" height="1100" viewBox="0 0 900 1100" fill="none" xmlns="http://www.w3.org/2000/svg">
  <defs>
    <linearGradient id="bg" x1="60" y1="40" x2="840" y2="1060" gradientUnits="userSpaceOnUse"><stop stop-color="#EAFBF6"/><stop offset="1" stop-color="#FFFFFF"/></linearGradient>
    <linearGradient id="glass" x1="220" y1="220" x2="680" y2="860" gradientUnits="userSpaceOnUse"><stop stop-color="#FFFFFF" stop-opacity="0.96"/><stop offset="1" stop-color="#DDF7F0" stop-opacity="0.72"/></linearGradient>
    <filter id="shadow" x="0" y="0" width="900" height="1100" filterUnits="userSpaceOnUse"><feDropShadow dx="0" dy="22" stdDeviation="22" flood-color="#0F172A" flood-opacity="0.18"/></filter>
  </defs>
  <rect width="900" height="1100" rx="48" fill="url(#bg)"/>
  <circle cx="220" cy="220" r="130" fill="#B7E7DD" opacity="0.66"/>
  <circle cx="700" cy="860" r="170" fill="#FFE5B0" opacity="0.7"/>
  <g filter="url(#shadow)">
    <rect x="150" y="180" width="600" height="740" rx="42" fill="url(#glass)" stroke="white"/>
    <path d="M260 495H640" stroke="#177A6A" stroke-width="18" stroke-linecap="round"/>
    <rect x="425" y="450" width="52" height="92" rx="18" fill="#177A6A"/>
    <rect x="345" y="470" width="52" height="52" rx="16" fill="#11594E"/>
    <rect x="505" y="470" width="52" height="52" rx="16" fill="#11594E"/>
    <path d="M482 543l58 58" stroke="#D6911D" stroke-width="12" stroke-linecap="round"/>
    <circle cx="542" cy="603" r="12" fill="#D6911D"/>
    <path d="M420 360C455 334 495 332 533 347C569 361 595 389 607 428" stroke="#FFFFFF" stroke-width="18" stroke-linecap="round" opacity="0.5"/>
    <ellipse cx="450" cy="628" rx="220" ry="30" fill="#B8C7D9" opacity="0.24"/>
  </g>
</svg>